<mxfile host="app.diagrams.net" modified="2023-12-20T03:01:42.021Z" agent="Mozilla/5.0 (Windows NT 10.0; Win64; x64) AppleWebKit/537.36 (KHTML, like Gecko) Chrome/120.0.0.0 Safari/537.36" etag="kOm8RLANKQLA8PGNz_lM" version="22.1.11" type="github">
  <diagram name="Page-1" id="2YBvvXClWsGukQMizWep">
    <mxGraphModel dx="794" dy="446" grid="1" gridSize="10" guides="1" tooltips="1" connect="1" arrows="1" fold="1" page="1" pageScale="1" pageWidth="850" pageHeight="1100" math="0" shadow="0">
      <root>
        <mxCell id="0" />
        <mxCell id="1" parent="0" />
        <mxCell id="QpOcxG-zFqbwheD5sY5L-5" style="edgeStyle=orthogonalEdgeStyle;rounded=0;orthogonalLoop=1;jettySize=auto;html=1;curved=0;entryX=0;entryY=0.067;entryDx=0;entryDy=0;entryPerimeter=0;" edge="1" parent="1" source="QpOcxG-zFqbwheD5sY5L-1" target="QpOcxG-zFqbwheD5sY5L-2">
          <mxGeometry relative="1" as="geometry">
            <mxPoint x="190" y="200" as="targetPoint" />
            <Array as="points">
              <mxPoint x="130" y="140" />
              <mxPoint x="130" y="140" />
            </Array>
          </mxGeometry>
        </mxCell>
        <mxCell id="QpOcxG-zFqbwheD5sY5L-6" value="&amp;lt;&amp;lt;create&amp;gt;&amp;gt;" style="edgeLabel;html=1;align=center;verticalAlign=middle;resizable=0;points=[];" vertex="1" connectable="0" parent="QpOcxG-zFqbwheD5sY5L-5">
          <mxGeometry x="-0.0679" y="7" relative="1" as="geometry">
            <mxPoint y="-7" as="offset" />
          </mxGeometry>
        </mxCell>
        <mxCell id="QpOcxG-zFqbwheD5sY5L-7" style="edgeStyle=orthogonalEdgeStyle;rounded=0;orthogonalLoop=1;jettySize=auto;html=1;curved=0;" edge="1" parent="1" source="QpOcxG-zFqbwheD5sY5L-1" target="QpOcxG-zFqbwheD5sY5L-3">
          <mxGeometry relative="1" as="geometry">
            <Array as="points">
              <mxPoint x="250" y="250" />
              <mxPoint x="250" y="250" />
            </Array>
          </mxGeometry>
        </mxCell>
        <mxCell id="QpOcxG-zFqbwheD5sY5L-1" value="Main" style="shape=umlLifeline;perimeter=lifelinePerimeter;whiteSpace=wrap;html=1;container=1;dropTarget=0;collapsible=0;recursiveResize=0;outlineConnect=0;portConstraint=eastwest;newEdgeStyle={&quot;curved&quot;:0,&quot;rounded&quot;:0};" vertex="1" parent="1">
          <mxGeometry x="40" y="40" width="100" height="300" as="geometry" />
        </mxCell>
        <mxCell id="QpOcxG-zFqbwheD5sY5L-9" style="edgeStyle=orthogonalEdgeStyle;rounded=0;orthogonalLoop=1;jettySize=auto;html=1;curved=0;dashed=1;" edge="1" parent="1" source="QpOcxG-zFqbwheD5sY5L-2" target="QpOcxG-zFqbwheD5sY5L-1">
          <mxGeometry relative="1" as="geometry">
            <Array as="points">
              <mxPoint x="180" y="190" />
              <mxPoint x="180" y="190" />
            </Array>
          </mxGeometry>
        </mxCell>
        <mxCell id="QpOcxG-zFqbwheD5sY5L-2" value="Consumer" style="shape=umlLifeline;perimeter=lifelinePerimeter;whiteSpace=wrap;html=1;container=1;dropTarget=0;collapsible=0;recursiveResize=0;outlineConnect=0;portConstraint=eastwest;newEdgeStyle={&quot;curved&quot;:0,&quot;rounded&quot;:0};size=40;" vertex="1" parent="1">
          <mxGeometry x="200" y="120" width="100" height="300" as="geometry" />
        </mxCell>
        <mxCell id="QpOcxG-zFqbwheD5sY5L-3" value="Publisher" style="shape=umlLifeline;perimeter=lifelinePerimeter;whiteSpace=wrap;html=1;container=1;dropTarget=0;collapsible=0;recursiveResize=0;outlineConnect=0;portConstraint=eastwest;newEdgeStyle={&quot;curved&quot;:0,&quot;rounded&quot;:0};" vertex="1" parent="1">
          <mxGeometry x="360" y="40" width="100" height="300" as="geometry" />
        </mxCell>
        <mxCell id="QpOcxG-zFqbwheD5sY5L-11" value="" style="html=1;points=[[0,0,0,0,5],[0,1,0,0,-5],[1,0,0,0,5],[1,1,0,0,-5]];perimeter=orthogonalPerimeter;outlineConnect=0;targetShapes=umlLifeline;portConstraint=eastwest;newEdgeStyle={&quot;curved&quot;:0,&quot;rounded&quot;:0};" vertex="1" parent="QpOcxG-zFqbwheD5sY5L-3">
          <mxGeometry x="45" y="255" width="10" height="40" as="geometry" />
        </mxCell>
        <mxCell id="QpOcxG-zFqbwheD5sY5L-12" value="register(Consumer)" style="html=1;align=left;spacingLeft=2;endArrow=block;rounded=0;edgeStyle=orthogonalEdgeStyle;curved=0;rounded=0;" edge="1" target="QpOcxG-zFqbwheD5sY5L-11" parent="QpOcxG-zFqbwheD5sY5L-3">
          <mxGeometry relative="1" as="geometry">
            <mxPoint x="50" y="235" as="sourcePoint" />
            <Array as="points">
              <mxPoint x="80" y="265" />
            </Array>
          </mxGeometry>
        </mxCell>
        <mxCell id="QpOcxG-zFqbwheD5sY5L-4" value="Report" style="shape=umlLifeline;perimeter=lifelinePerimeter;whiteSpace=wrap;html=1;container=1;dropTarget=0;collapsible=0;recursiveResize=0;outlineConnect=0;portConstraint=eastwest;newEdgeStyle={&quot;curved&quot;:0,&quot;rounded&quot;:0};" vertex="1" parent="1">
          <mxGeometry x="700" y="300" width="100" height="300" as="geometry" />
        </mxCell>
        <mxCell id="QpOcxG-zFqbwheD5sY5L-10" style="edgeStyle=orthogonalEdgeStyle;rounded=0;orthogonalLoop=1;jettySize=auto;html=1;curved=0;" edge="1" parent="1" source="QpOcxG-zFqbwheD5sY5L-3">
          <mxGeometry relative="1" as="geometry">
            <mxPoint x="490" y="270" as="sourcePoint" />
            <mxPoint x="409.5" y="270" as="targetPoint" />
            <Array as="points">
              <mxPoint x="450" y="290" />
            </Array>
          </mxGeometry>
        </mxCell>
      </root>
    </mxGraphModel>
  </diagram>
</mxfile>
